
<!--
- XXL
- nav
- XL
- L
- tablet
- side
- phone
- icon-1
- close
- search
- subdirectory_arrow_right
- drop-down
- hashtag
- attachment
- toolbar-bottom
- toolbar-left
- toolbar-top
- search
-settings
-drop
-mark
-rightarrow
-leftarrow
-bookmark
-clipboard
-component
-add
-check
-edit
-trash
-downChevron
-save
-plus
-componentHandle
-expand
-->


<svg xmlns="http://www.w3.org/2000/svg" xmlns:xlink="http://www.w3.org/1999/xlink">
  <defs>


    <symbol viewBox="0 0 24 24" id="downChevron">
      <path fill="currentColor"
        d="M12 14.975q-.2 0-.388-.075t-.312-.2l-4.6-4.6q-.275-.275-.275-.7t.275-.7q.275-.275.7-.275t.7.275l3.9 3.9l3.9-3.9q.275-.275.7-.275t.7.275q.275.275.275.7t-.275.7l-4.6 4.6q-.15.15-.325.213t-.375.062Z" />
    </symbol>

    <symbol viewBox="0 0 24 24" id="reset">
      <g fill="none" fill-rule="evenodd" stroke="currentColor" stroke-linecap="round"
        stroke-linejoin="round">
        <path d="M14.5 3.5c2.414 1.377 4 4.022 4 7a8 8 0 1 1-8-8" />
        <path d="M14.5 7.5v-4h4" />
      </g>
    </symbol>

    <symbol viewBox="0 0 24 24" id="expand">
      <path fill="currentColor" d="M4 20h16v2H4zM4 2h16v2H4zm9 7h3l-4-4l-4 4h3v6H8l4 4l4-4h-3z" />
    </symbol>


    <symbol viewBox="0 0 24 24" id="plus">
      <path fill="currentColor" d="M11 19v-6H5v-2h6V5h2v6h6v2h-6v6h-2Z" />
    </symbol>

    <symbol viewBox="0 0 24 24" id="upChevron">
      <svg xmlns="http://www.w3.org/2000/svg" width="24" height="24" viewBox="0 0 24 24">
        <path fill="currentColor"
          d="M8.12 14.71L12 10.83l3.88 3.88a.996.996 0 1 0 1.41-1.41L12.7 8.71a.996.996 0 0 0-1.41 0L6.7 13.3a.996.996 0 0 0 0 1.41c.39.38 1.03.39 1.42 0z" />
      </svg>
    </symbol>

    <symbol viewBox="0 0 24 24" id="save">
      <path fill="currentColor"
        d="M19 12v7H5v-7H3v7c0 1.1.9 2 2 2h14c1.1 0 2-.9 2-2v-7h-2zm-6 .67l2.59-2.58L17 11.5l-5 5l-5-5l1.41-1.41L11 12.67V3h2v9.67z" />
    </symbol>


    <symbol viewBox="0 0 24 24" id="componentHandle">
      <path fill="currentColor"
        d="M5 11q-.825 0-1.413-.588T3 9V5q0-.825.588-1.413T5 3h4q.825 0 1.413.588T11 5v4q0 .825-.588 1.413T9 11H5Zm0 10q-.825 0-1.413-.588T3 19v-4q0-.825.588-1.413T5 13h4q.825 0 1.413.588T11 15v4q0 .825-.588 1.413T9 21H5Zm10-10q-.825 0-1.413-.588T13 9V5q0-.825.588-1.413T15 3h4q.825 0 1.413.588T21 5v4q0 .825-.588 1.413T19 11h-4Zm0 10q-.825 0-1.413-.588T13 19v-4q0-.825.588-1.413T15 13h4q.825 0 1.413.588T21 15v4q0 .825-.588 1.413T19 21h-4ZM5 9h4V5H5v4Zm10 0h4V5h-4v4Zm0 10h4v-4h-4v4ZM5 19h4v-4H5v4ZM15 9Zm0 6Zm-6 0Zm0-6Z" />
    </symbol>


    <symbol viewBox="0 0 24 24" id="check">
      <path fill="currentColor"
        d="m10 13.6l5.9-5.9q.275-.275.7-.275t.7.275q.275.275.275.7t-.275.7l-6.6 6.6q-.3.3-.7.3t-.7-.3l-2.6-2.6q-.275-.275-.275-.7t.275-.7q.275-.275.7-.275t.7.275l1.9 1.9Z" />
    </symbol>

    <symbol viewBox="0 0 24 24" id="cheveron-down">
      <path stroke="none" d="M0 0h24v24H0z" fill="currentColor" />
      <polyline points="6 9 12 15 18 9" />
    </symbol>


    <symbol viewBox="0 0 24 24" id="edit">
      <path fill="currentColor"
        d="M5 19h1.4l8.625-8.625l-1.4-1.4L5 17.6V19ZM19.3 8.925l-4.25-4.2l1.4-1.4q.575-.575 1.413-.575t1.412.575l1.4 1.4q.575.575.6 1.388t-.55 1.387L19.3 8.925ZM17.85 10.4L7.25 21H3v-4.25l10.6-10.6l4.25 4.25Zm-3.525-.725l-.7-.7l1.4 1.4l-.7-.7Z" />
    </symbol>

    <symbol viewBox="0 0 24 24" id="add">
      <path fill="currentColor"
        d="M11 17h2v-4h4v-2h-4V7h-2v4H7v2h4v4Zm1 5q-2.075 0-3.9-.788t-3.175-2.137q-1.35-1.35-2.137-3.175T2 12q0-2.075.788-3.9t2.137-3.175q1.35-1.35 3.175-2.137T12 2q2.075 0 3.9.788t3.175 2.137q1.35 1.35 2.138 3.175T22 12q0 2.075-.788 3.9t-2.137 3.175q-1.35 1.35-3.175 2.138T12 22Zm0-2q3.35 0 5.675-2.325T20 12q0-3.35-2.325-5.675T12 4Q8.65 4 6.325 6.325T4 12q0 3.35 2.325 5.675T12 20Zm0-8Z" />
    </symbol>


    <symbol viewBox="0 0 24 24" id="nav">
      <path
        d="M7.5 2.8125V3.78472H0V2.8125H7.5ZM0 6.70139H15V7.67361H0V6.70139ZM7.5 11.5625V10.5903H15V11.5625H7.5Z"
        fill="#8B8B8B" />
    </symbol>


    <symbol viewBox="0 0 24 24" id="XL">
      <path fill-rule="evenodd" clip-rule="evenodd"
        d="M3 2a1 1 0 00-1 1v13a1 1 0 001 1h18a1 1 0 001-1V3a1 1 0 00-1-1H3zm18 1H3v12h18V3z"
        fill="currentColor"></path>
      <path fill="currentColor" d="M13 19h4v2h-4zm-6 0h4v2H7z"></path>
      <path opacity=".6" fill="currentColor" d="M4 4h16v10H4z"></path>
    </symbol>


    <symbol viewBox="0 0 24 24" id="L">
      <path fill-rule="evenodd" clip-rule="evenodd"
        d="M4 2a1 1 0 00-1 1v13a1 1 0 001 1h16a1 1 0 001-1V3a1 1 0 00-1-1H4zm16 1H4v12h16V3z"
        fill="currentColor"></path>
      <path opacity=".6" fill="currentColor" d="M5 4h14v10H5z"></path>
      <path fill="currentColor" d="M10 19h4v2h-4z"></path>
    </symbol>


    <symbol viewBox="0 0 24 24" id="tablet">
      <path fill-rule="evenodd" clip-rule="evenodd"
        d="M4 4a1 1 0 011-1h14a1 1 0 011 1v16a1 1 0 01-1 1H5a1 1 0 01-1-1V4zm7 15a1 1 0 112 0 1 1 0 01-2 0zm8-15H5v13h14V4z"
        fill="currentColor"></path>
      <path opacity=".6" fill="currentColor" d="M6 5h12v11H6z"></path>
    </symbol>


    <symbol viewBox="0 0 24 24" id="side">
      <path fill-rule="evenodd" clip-rule="evenodd"
        d="M4 18a1 1 0 01-1-1V7a1 1 0 011-1h16a1 1 0 011 1v10a1 1 0 01-1 1H4zm15-5a1 1 0 110-2 1 1 0 010 2zM4 7v10h13V7H4z"
        fill="currentColor"></path>
      <path opacity=".6" fill="currentColor" d="M5 16V8h11v8z"></path>
    </symbol>

    <symbol viewBox="0 0 24 24" id="phone">
      <path fill-rule="evenodd" clip-rule="evenodd"
        d="M6 4a1 1 0 011-1h10a1 1 0 011 1v16a1 1 0 01-1 1H7a1 1 0 01-1-1V4zm5 15a1 1 0 112 0 1 1 0 01-2 0zm6-15H7v13h10V4z"
        fill="currentColor"></path>
      <path opacity=".6" fill="currentColor" d="M8 5h8v11H8z"></path>
    </symbol>

    <symbol viewBox="0 0 24 24" id="icon-1">
      <path
        d="M6.84 5.76L8.4 7.68H5.28l-.72 2.88H2.64l.72-2.88H1.44L0 13.44h3.84l-.48 1.92h3.36L4.2 18.24h2.82l2.34-2.88h5.28l2.34 2.88h2.82l-2.52-2.88h3.36l-.48-1.92H24l-1.44-5.76h-1.92l.72 2.88h-1.92l-.72-2.88H15.6l1.56-1.92h-2.04l-1.68 1.92h-2.88L8.88 5.76zm.24 3.84H9v1.92H7.08zm7.925 0h1.92v1.92h-1.92Z" />
    </symbol>

    <symbol viewBox="0 0 24 24" id="close">
      <path
        d="M6.2253 4.81108C5.83477 4.42056 5.20161 4.42056 4.81108 4.81108C4.42056 5.20161 4.42056 5.83477 4.81108 6.2253L10.5858 12L4.81114 17.7747C4.42062 18.1652 4.42062 18.7984 4.81114 19.1889C5.20167 19.5794 5.83483 19.5794 6.22535 19.1889L12 13.4142L17.7747 19.1889C18.1652 19.5794 18.7984 19.5794 19.1889 19.1889C19.5794 18.7984 19.5794 18.1652 19.1889 17.7747L13.4142 12L19.189 6.2253C19.5795 5.83477 19.5795 5.20161 19.189 4.81108C18.7985 4.42056 18.1653 4.42056 17.7748 4.81108L12 10.5858L6.2253 4.81108Z"
        fill="currentColor"
      />
    </symbol>


    <symbol viewBox="0 0 24 24" id="XXL">
      <path fill-rule="evenodd" clip-rule="evenodd"
        d="M1 2a1 1 0 00-1 1v13a1 1 0 001 1h22a1 1 0 001-1V3a1 1 0 00-1-1H1zm22 1H1v12h22V3z"
        fill="currentColor"></path>
      <path fill-rule="evenodd" clip-rule="evenodd"
        d="M1 2a1 1 0 00-1 1v13a1 1 0 001 1h22a1 1 0 001-1V3a1 1 0 00-1-1H1zm22 1H1v12h22V3z"
        fill="currentColor"></path>
      <path fill="currentColor" d="M10 19h4v2h-4zm6 0h4v2h-4zM4 19h4v2H4z"></path>
      <path opacity=".6" fill="currentColor" d="M2 4h20v10H2z"></path>
    </symbol>


    <symbol viewBox="0 0 16 16" id="search">
      <path fill="grey"
        d="M15.53 14.47l-3.795-3.795A5.965 5.965 0 0013 7a6 6 0 10-6 6 5.97 5.97 0 003.675-1.264l3.795 3.795 1.06-1.06v-.001zM7 11.5c-2.48 0-4.5-2.02-4.5-4.5S4.52 2.5 7 2.5s4.5 2.02 4.5 4.5-2.02 4.5-4.5 4.5z"></path>
    </symbol>

    <symbol viewBox="0 0 24 24" id="subdirectory_arrow_right">
      <path d="M19 15l-6 6-1.42-1.42L15.17 16H4V4h2v10h9.17l-3.59-3.58L13 9l6 6z"
        fill="currentColor"></path>
    </symbol>

    <symbol viewBox="0 0 24 24" id="drop-down">
      <path
        d="M7.75745 10.5858L9.17166 9.17154L12.0001 12L14.8285 9.17157L16.2427 10.5858L12.0001 14.8284L7.75745 10.5858Z"
        fill="currentColor" />
      <path
        d="M6.34317 7.75732L4.92896 9.17154L12 16.2426L19.0711 9.17157L17.6569 7.75735L12 13.4142L6.34317 7.75732Z"
        fill="currentColor"
      />
    </symbol>

    <symbol viewBox="0 0 24 24" id="hashtag">
      <path
        fill-rule="evenodd"
        clip-rule="evenodd"
        d="M8 4V8H4V10H8V14H4V16H8V20H10V16H14V20H16V16H20V14H16V10H20V8H16V4H14V8H10V4H8ZM14 14V10H10V14H14Z"
        fill="currentColor"
      />
    </symbol>

    <symbol viewBox="0 0 24 24" id="attachment">
      <path
        d="M14 0C16.7614 0 19 2.23858 19 5V17C19 20.866 15.866 24 12 24C8.13401 24 5 20.866 5 17V9H7V17C7 19.7614 9.23858 22 12 22C14.7614 22 17 19.7614 17 17V5C17 3.34315 15.6569 2 14 2C12.3431 2 11 3.34315 11 5V17C11 17.5523 11.4477 18 12 18C12.5523 18 13 17.5523 13 17V6H15V17C15 18.6569 13.6569 20 12 20C10.3431 20 9 18.6569 9 17V5C9 2.23858 11.2386 0 14 0Z"
        fill="currentColor"
      />
    </symbol>


    <symbol viewBox="0 0 24 24" id="toolbar-bottom">
      <path
        fill-rule="evenodd"
        clip-rule="evenodd"
        d="M2 8C2 6.34315 3.34315 5 5 5H19C20.6569 5 22 6.34315 22 8V16C22 17.6569 20.6569 19 19 19H5C3.34315 19 2 17.6569 2 16V8ZM5 7H19C19.5523 7 20 7.44771 20 8V16C20 16.5523 19.5523 17 19 17H5C4.44772 17 4 16.5523 4 16V8C4 7.44772 4.44772 7 5 7Z"
        fill="currentColor"
      />
    </symbol>


    <symbol viewBox="0 0 24 24" id="toolbar-left">

      <path d="M8 9H6V15H8V9Z" fill="currentColor" />
      <path
        fill-rule="evenodd"
        clip-rule="evenodd"
        d="M2 8C2 6.34315 3.34315 5 5 5H19C20.6569 5 22 6.34315 22 8V16C22 17.6569 20.6569 19 19 19H5C3.34315 19 2 17.6569 2 16V8ZM5 7H19C19.5523 7 20 7.44771 20 8V16C20 16.5523 19.5523 17 19 17H5C4.44772 17 4 16.5523 4 16V8C4 7.44772 4.44772 7 5 7Z"
        fill="currentColor"
      />
    </symbol>

    <symbol viewBox="0 0 24 24" id="toolbar-top">

      <path d="M18 11H6V9H18V11Z" fill="currentColor" />
      <path
        fill-rule="evenodd"
        clip-rule="evenodd"
        d="M2 16C2 17.6569 3.34315 19 5 19H19C20.6569 19 22 17.6569 22 16V8C22 6.34315 20.6569 5 19 5H5C3.34315 5 2 6.34315 2 8V16ZM5 17H19C19.5523 17 20 16.5523 20 16V8C20 7.44772 19.5523 7 19 7H5C4.44772 7 4 7.44771 4 8V16C4 16.5523 4.44772 17 5 17Z"
        fill="currentColor"
      />

    </symbol>


    <symbol viewBox="0 0 24 24" id="search">
      <path
        fill-rule="evenodd"
        clip-rule="evenodd"
        d="M18.319 14.4326C20.7628 11.2941 20.542 6.75347 17.6569 3.86829C14.5327 0.744098 9.46734 0.744098 6.34315 3.86829C3.21895 6.99249 3.21895 12.0578 6.34315 15.182C9.22833 18.0672 13.769 18.2879 16.9075 15.8442C16.921 15.8595 16.9351 15.8745 16.9497 15.8891L21.1924 20.1317C21.5829 20.5223 22.2161 20.5223 22.6066 20.1317C22.9971 19.7412 22.9971 19.1081 22.6066 18.7175L18.364 14.4749C18.3493 14.4603 18.3343 14.4462 18.319 14.4326ZM16.2426 5.28251C18.5858 7.62565 18.5858 11.4246 16.2426 13.7678C13.8995 16.1109 10.1005 16.1109 7.75736 13.7678C5.41421 11.4246 5.41421 7.62565 7.75736 5.28251C10.1005 2.93936 13.8995 2.93936 16.2426 5.28251Z"
        fill="currentColor"
      />
    </symbol>


    <symbol viewBox="0 0 24 24" id="settings">

      <path
        fill-rule="evenodd"
        clip-rule="evenodd"
        d="M7 3C8.86384 3 10.4299 4.27477 10.874 6H19V8H10.874C10.4299 9.72523 8.86384 11 7 11C4.79086 11 3 9.20914 3 7C3 4.79086 4.79086 3 7 3ZM7 9C8.10457 9 9 8.10457 9 7C9 5.89543 8.10457 5 7 5C5.89543 5 5 5.89543 5 7C5 8.10457 5.89543 9 7 9Z"
        fill="currentColor"
      />
      <path
        fill-rule="evenodd"
        clip-rule="evenodd"
        d="M17 20C15.1362 20 13.5701 18.7252 13.126 17H5V15H13.126C13.5701 13.2748 15.1362 12 17 12C19.2091 12 21 13.7909 21 16C21 18.2091 19.2091 20 17 20ZM17 18C18.1046 18 19 17.1046 19 16C19 14.8954 18.1046 14 17 14C15.8954 14 15 14.8954 15 16C15 17.1046 15.8954 18 17 18Z"
        fill="currentColor"
      />
    </symbol>


    <symbol viewBox="0 0 24 24" id="trash">
      <path fill="currentColor"
        d="M6 19c0 1.1.9 2 2 2h8c1.1 0 2-.9 2-2V7H6v12zM8 9h8v10H8V9zm7.5-5l-1-1h-5l-1 1H5v2h14V4h-3.5z" />
    </symbol>


    <symbol viewBox="0 0 24 24" id="drop">
      <path
        d="M6.34315 19.5208C3.21895 16.3966 3.21895 11.3312 6.34315 8.20705L12 2.5502L17.6569 8.20705C20.781 11.3312 20.781 16.3966 17.6569 19.5208C14.5327 22.645 9.46734 22.645 6.34315 19.5208Z"
        stroke="currentColor"
        stroke-width="2"
      />

    </symbol>

    <symbol viewBox="0 0 24 24" id="mark">
      <path fill="currentColor"
        d="M6.4 20.4q-.5.2-.95-.087T5 19.475V5q0-.825.588-1.413T7 3h6v2H7v12.95l5-2.15l5 2.15V11h2v8.475q0 .55-.45.838t-.95.087L12 18l-5.6 2.4ZM7 5h6h-6Zm11 4q-.425 0-.713-.287T17 8V7h-1q-.425 0-.713-.288T15 6q0-.425.288-.713T16 5h1V4q0-.425.288-.713T18 3q.425 0 .713.288T19 4v1h1q.425 0 .713.288T21 6q0 .425-.288.713T20 7h-1v1q0 .425-.288.713T18 9Z" />
    </symbol>


    <symbol viewBox="0 0 24 24" id="rightArrow">
      <path fill="currentColor"
        d="M7.15 21.1q-.375-.375-.375-.888t.375-.887L14.475 12l-7.35-7.35q-.35-.35-.35-.875t.375-.9q.375-.375.888-.375t.887.375l8.4 8.425q.15.15.213.325T17.6 12q0 .2-.063.375t-.212.325L8.9 21.125q-.35.35-.863.35T7.15 21.1Z" />
    </symbol>
    <symbol viewBox="0 0 24 24" id="expand">
      <path fill="currentColor"
        d="M10 21v-2H6.41l4.5-4.5l-1.41-1.41l-4.5 4.5V14H3v7h7m4.5-10.09l4.5-4.5V10h2V3h-7v2h3.59l-4.5 4.5l1.41 1.41Z" />
    </symbol>

    <symbol viewBox="0 0 24 24" id="leftArrow">
      <path fill="currentColor"
        d="M15.125 21.1L6.7 12.7q-.15-.15-.213-.325T6.425 12q0-.2.062-.375T6.7 11.3l8.425-8.425q.35-.35.875-.35t.9.375q.375.375.375.875t-.375.875L9.55 12l7.35 7.35q.35.35.35.863t-.375.887q-.375.375-.875.375t-.875-.375Z" />

    </symbol>


    <symbol viewBox="0 0 24 24" id="bookmark">
      <path
        fill-rule="evenodd"
        clip-rule="evenodd"
        d="M2 19C2 20.6569 3.34315 22 5 22H19C20.6569 22 22 20.6569 22 19V5C22 3.34315 20.6569 2 19 2H5C3.34315 2 2 3.34315 2 5V19ZM20 19C20 19.5523 19.5523 20 19 20H5C4.44772 20 4 19.5523 4 19V5C4 4.44772 4.44772 4 5 4H10V12.0111L12.395 12.0112L14.0001 9.86419L15.6051 12.0112H18.0001L18 4H19C19.5523 4 20 4.44772 20 5V19ZM16 4H12V9.33585L14.0001 6.66046L16 9.33571V4Z"
        fill="currentColor"
      />
    </symbol>


    <symbol viewBox="0 0 24 24" id="clipboard">

      <!-- <path d="M13 7H7V5H13V7Z" fill="currentColor" /> -->
      <!-- <path d="M13 11H7V9H13V11Z" fill="currentColor" /> -->
      <!-- <path d="M7 15H13V13H7V15Z" fill="currentColor" /> -->
      <path
        fill-rule="evenodd"
        clip-rule="evenodd"
        d="M3 19V1H17V5H21V23H7V19H3ZM15 17V3H5V17H15ZM17 7V19H9V21H19V7H17Z"
        fill="currentColor"
      />


    </symbol>


    <symbol
      id="component"
      viewBox="0 0 24 24"
      fill="none"
      xmlns="http://www.w3.org/2000/svg"
    >
      <path
        fill-rule="evenodd"
        clip-rule="evenodd"
        d="M7.7572 6.3431L11.9998 2.10046L16.2425 6.3431L11.9998 10.5857L7.7572 6.3431ZM10.5856 6.3431L11.9998 4.92889L13.4141 6.3431L11.9998 7.75732L10.5856 6.3431Z"
        fill="currentColor"
      />
      <path
        fill-rule="evenodd"
        clip-rule="evenodd"
        d="M2.10046 11.9999L6.3431 7.75726L10.5857 11.9999L6.3431 16.2425L2.10046 11.9999ZM4.92889 11.9999L6.3431 10.5857L7.75732 11.9999L6.3431 13.4141L4.92889 11.9999Z"
        fill="currentColor"
      />
      <path
        fill-rule="evenodd"
        clip-rule="evenodd"
        d="M13.4142 11.9999L17.6568 16.2425L21.8995 11.9999L17.6568 7.75726L13.4142 11.9999ZM17.6568 10.5857L16.2426 11.9999L17.6568 13.4141L19.071 11.9999L17.6568 10.5857Z"
        fill="currentColor"
      />
      <path
        fill-rule="evenodd"
        clip-rule="evenodd"
        d="M7.7572 17.6569L11.9998 13.4142L16.2425 17.6569L11.9998 21.8995L7.7572 17.6569ZM10.5856 17.6569L11.9998 16.2427L13.4141 17.6569L11.9998 19.0711L10.5856 17.6569Z"
        fill="currentColor"
      />
    </symbol>


  </defs>
</svg>